<?xml version="1.0" encoding="iso-8859-1"?>
<!-- Uploaded to: SVG Repo, www.svgrepo.com, Generator: SVG Repo Mixer Tools -->
<svg fill="#fff" version="1.1" id="Layer_1" xmlns="http://www.w3.org/2000/svg" xmlns:xlink="http://www.w3.org/1999/xlink" 
	 viewBox="0 0 513.164 513.164" xml:space="preserve">
<g>
	<g>
		<path d="M197.818,222.255h-11.636c-12.8,0-23.273,10.473-23.273,23.273s10.473,23.273,23.273,23.273
			c10.473,0,19.782-6.982,22.109-16.291c1.164,1.164,1.164,2.327,1.164,4.655v34.909c0,9.309-5.818,18.618-17.455,24.436
			c-18.618,10.473-29.091,27.927-29.091,45.382c0,6.982,4.655,11.636,11.636,11.636s11.636-4.655,11.636-11.636
			c0-9.309,5.818-18.618,17.455-24.436c18.618-10.473,29.091-27.927,29.091-45.382v-34.909
			C232.727,237.382,217.6,222.255,197.818,222.255z"/>
	</g>
</g>
<g>
	<g>
		<path d="M290.909,420.073c-9.309,0-17.455-5.818-23.273-15.127v-2.327l30.255-19.782c4.655-2.327,5.818-8.145,4.655-12.8
			s-5.818-8.146-11.636-8.146h-69.818c-4.655,0-9.309,3.491-11.636,8.146c-1.164,4.655,0,10.473,4.655,12.8l30.255,19.782v2.327
			c-5.818,9.309-13.964,15.127-23.273,15.127c-6.982,0-11.636,4.655-11.636,11.636s4.655,11.636,11.636,11.636
			c12.8,0,25.6-5.818,34.909-15.127c9.309,10.473,22.109,15.127,34.909,15.127c6.982,0,11.636-4.655,11.636-11.636
			S297.891,420.073,290.909,420.073z"/>
	</g>
</g>
<g>
	<g>
		<path d="M320,316.509c-11.636-5.818-17.455-15.127-17.455-24.436v-34.909c0-2.327,0-3.491,1.164-4.655
			c3.491,9.309,11.636,16.291,22.109,16.291c12.8,0,23.273-10.473,23.273-23.273s-10.473-23.273-23.273-23.273h-11.636
			c-19.782,0-34.909,15.127-34.909,34.909v34.909c0,17.455,10.473,34.909,29.091,45.382c10.473,5.818,17.455,15.127,17.455,24.436
			c0,6.982,4.655,11.636,11.636,11.636c6.982,0,11.636-4.655,11.636-11.636C349.091,344.436,338.618,326.982,320,316.509z"/>
	</g>
</g>
<g>
	<g>
		<path d="M325.818,152.436c-26.764,0-51.2,6.982-69.818,19.782c-18.618-12.8-43.055-19.782-69.818-19.782
			c-6.982,0-11.636,4.655-11.636,11.636s4.655,11.636,11.636,11.636c24.436,0,47.709,8.145,61.673,19.782
			c1.164,0,1.164,1.164,2.327,1.164c0,0,1.164,0,1.164,1.164c1.164,0,2.327,1.164,4.655,1.164c1.164,0,3.491,0,4.655-1.164
			c0,0,1.164,0,1.164-1.164c1.164,0,1.164-1.164,2.327-1.164c13.964-12.8,37.236-19.782,61.673-19.782
			c6.982,0,11.636-4.655,11.636-11.636S332.8,152.436,325.818,152.436z"/>
	</g>
</g>
<g>
	<g>
		<path d="M456.145,187.345c-6.982-10.473-5.818-25.6,3.491-34.909l8.146-8.145c20.945-20.945,33.745-51.2,33.745-82.618
			c0-11.636-3.491-23.273-10.473-33.745C479.418,10.473,460.8,0,439.855,0c-23.273,0-45.382,8.145-62.836,23.273
			c-4.655,4.655-5.818,11.636-1.164,16.291s11.636,5.818,16.291,1.164c13.964-11.636,30.255-17.455,47.709-17.455
			c12.8,0,24.436,5.818,32.582,17.455c2.327,6.982,4.655,13.964,4.655,22.109c0,24.436-9.309,47.709-26.764,65.164l-8.145,8.145
			c-17.455,17.455-19.782,44.218-5.818,65.164l16.291,19.782c15.127,18.618,24.436,43.055,24.436,66.327l-1.164,58.182
			c0,27.927-13.964,53.527-37.236,68.655l-82.618,53.527c-23.273,15.127-48.873,22.109-76.8,22.109h-24.436H230.4
			c-26.764,0-53.527-8.146-76.8-22.109l-82.618-53.527c-23.273-15.127-36.073-64-36.073-91.927v-34.909
			c0-24.436,8.145-47.709,24.436-66.327l16.291-19.782c13.964-19.782,11.636-47.709-5.818-65.164L61.673,128
			c-17.455-17.455-26.764-40.727-26.764-66.327c0-6.982,2.327-13.964,6.982-19.782c6.982-11.636,18.618-17.455,31.418-17.455
			c17.455,0,34.909,5.818,47.709,17.455c4.655,4.655,12.8,3.491,16.291-1.164c4.655-4.655,3.491-12.8-1.164-16.291
			C118.691,9.309,96.582,1.164,73.309,1.164c-20.945,0-39.564,10.473-51.2,27.927c-6.982,10.473-10.473,20.945-10.473,33.745
			c0,30.255,12.8,60.509,33.745,81.455l8.145,8.145c9.309,9.309,10.473,24.436,3.491,33.745l-16.291,19.782
			c-18.618,23.273-29.091,52.364-29.091,81.455v34.909c0,36.073,16.291,91.927,46.545,111.709l82.618,53.527
			c26.764,17.455,57.018,25.6,88.436,25.6h24.436h25.6c31.418,0,62.836-9.309,88.436-25.6l82.618-53.527
			c30.255-19.782,47.709-52.364,47.709-88.436l1.164-58.182c1.164-30.255-9.309-58.182-27.927-81.455L456.145,187.345z"/>
	</g>
</g>
<g>
	<g>
		<path d="M430.545,36.073c-6.982,0-11.636,4.655-11.636,11.636s4.655,11.636,11.636,11.636S442.182,64,442.182,70.982
			s4.655,11.636,11.636,11.636s11.636-4.655,11.636-11.636C465.455,51.2,450.327,36.073,430.545,36.073z"/>
	</g>
</g>
<g>
	<g>
		<path d="M393.309,96.582c-11.636-16.291-25.6-30.255-40.727-41.891C323.491,34.909,290.909,24.436,256,24.436
			c-34.909,0-67.491,10.473-95.418,30.255c-16.291,11.636-30.255,25.6-41.891,41.891c-3.491,5.818-2.327,12.8,3.491,16.291
			c2.327,1.164,4.655,2.327,6.982,2.327c3.491,0,6.982-2.327,9.309-4.655c9.309-13.964,22.109-25.6,34.909-36.073
			C197.818,57.018,225.745,47.709,256,47.709c30.255,0,58.182,9.309,82.618,26.764c13.964,9.309,25.6,22.109,34.909,36.073
			c2.327,3.491,5.818,4.655,9.309,4.655c2.327,0,4.655-1.164,6.982-2.327C395.636,109.382,396.8,102.4,393.309,96.582z"/>
	</g>
</g>
<g>
	<g>
		<path d="M81.454,36.073c-19.782,0-34.909,15.127-34.909,34.909c0,6.982,4.655,11.636,11.636,11.636s11.636-4.655,11.636-11.636
			s4.655-11.636,11.636-11.636s11.636-4.655,11.636-11.636S88.436,36.073,81.454,36.073z"/>
	</g>
</g>
</svg>